<svg width="29" height="27" viewBox="0 0 29 27" fill="none" xmlns="http://www.w3.org/2000/svg">
<path d="M1.5 25.5H27.5M3.5 1.5V25.5M17.5 1.5V25.5M25.5 7.5V25.5M7.5 6.5H8.5M7.5 10.5H8.5M7.5 14.5H8.5M12.5 6.5H13.5M12.5 10.5H13.5M12.5 14.5H13.5M7.5 25.5V21C7.5 20.172 8.172 19.5 9 19.5H12C12.828 19.5 13.5 20.172 13.5 21V25.5M2.5 1.5H18.5M17.5 7.5H26.5M21.5 12.5H21.5107V12.5107H21.5V12.5ZM21.5 16.5H21.5107V16.5107H21.5V16.5ZM21.5 20.5H21.5107V20.5107H21.5V20.5Z" stroke="#3C6AD4" stroke-width="2" stroke-linecap="round" stroke-linejoin="round"/>
</svg>
