<svg width="29" height="27" viewBox="0 0 29 27" fill="none" xmlns="http://www.w3.org/2000/svg">
<path d="M16.5008 25.5V15.5C16.5008 15.2348 16.6062 14.9804 16.7937 14.7929C16.9812 14.6054 17.2356 14.5 17.5008 14.5H21.5008C21.766 14.5 22.0204 14.6054 22.2079 14.7929C22.3954 14.9804 22.5008 15.2348 22.5008 15.5V25.5M16.5008 25.5H1.64747M16.5008 25.5H22.5008M22.5008 25.5H27.3541M25.5008 25.5V9.96533M25.5008 9.96533C24.7009 10.4268 23.766 10.5974 22.8547 10.4482C21.9434 10.299 21.1117 9.83913 20.5008 9.14667C19.7675 9.976 18.6955 10.5 17.5008 10.5C16.9332 10.5005 16.372 10.38 15.8546 10.1464C15.3373 9.91279 14.8757 9.57151 14.5008 9.14533C13.7675 9.976 12.6955 10.5 11.5008 10.5C10.9332 10.5005 10.372 10.38 9.85462 10.1464C9.33729 9.91279 8.87574 9.57151 8.5008 9.14533C7.89003 9.83802 7.05845 10.2981 6.14713 10.4476C5.2358 10.597 4.30083 10.4266 3.5008 9.96533M25.5008 9.96533C26.0323 9.65854 26.486 9.23359 26.8269 8.72335C27.1679 8.21311 27.3868 7.63128 27.4669 7.02287C27.5469 6.41446 27.4859 5.79579 27.2886 5.21473C27.0912 4.63368 26.7628 4.10582 26.3288 3.672L24.7421 2.08667C24.3674 1.71149 23.8591 1.50047 23.3288 1.5H5.67147C5.1414 1.50011 4.63307 1.71064 4.25813 2.08533L2.6728 3.672C2.23978 4.10632 1.91229 4.63427 1.71556 5.21516C1.51883 5.79605 1.45813 6.41436 1.53813 7.02242C1.61813 7.63048 1.8367 8.21205 2.17698 8.72228C2.51727 9.23252 2.97018 9.6578 3.5008 9.96533M3.5008 25.5V9.96533M7.5008 21.5H12.5008C12.766 21.5 13.0204 21.3946 13.2079 21.2071C13.3954 21.0196 13.5008 20.7652 13.5008 20.5V15.5C13.5008 15.2348 13.3954 14.9804 13.2079 14.7929C13.0204 14.6054 12.766 14.5 12.5008 14.5H7.5008C7.23558 14.5 6.98123 14.6054 6.79369 14.7929C6.60616 14.9804 6.5008 15.2348 6.5008 15.5V20.5C6.5008 21.052 6.9488 21.5 7.5008 21.5Z" stroke="#3C6AD4" stroke-width="2" stroke-linecap="round" stroke-linejoin="round"/>
</svg>
